<svg xmlns="http://www.w3.org/2000/svg" width="67.969" height="49.036" viewBox="0 0 67.969 49.036"><g transform="translate(-300.145 -197.482)"><path d="M-13.228,46.036a2.992,2.992,0,0,1-2.179-.937L-35.758,23.6a3,3,0,0,1,0-4.123L-15.409-2.06a3,3,0,0,1,4.241-.121,3,3,0,0,1,.121,4.241l-18.4,19.48,18.4,19.433a3,3,0,0,1-.116,4.241A2.99,2.99,0,0,1-13.228,46.036Z" transform="translate(336.725 200.482)" fill="#fff"/><path d="M58.114,3H0A3,3,0,0,1-3,0,3,3,0,0,1,0-3H58.114a3,3,0,0,1,3,3A3,3,0,0,1,58.114,3Z" transform="translate(307 222)" fill="#fff"/></g></svg>